<svg xmlns="http://www.w3.org/2000/svg" viewBox="0 0 32 32" width="32" height="32">
  <defs>
    <linearGradient id="bg" x1="0" y1="0" x2="0" y2="1">
      <stop offset="0%" stop-color="#818CF8"/>
      <stop offset="100%" stop-color="#4F46E5"/>
    </linearGradient>
  </defs>

  <!-- Pixel-notched rounded square -->
  <path d="
    M6 2 H26
    L28 2 L28 4
    L30 4 L30 6
    L30 26
    L30 28 L28 28
    L28 30 L26 30
    H6
    L4 30 L4 28
    L2 28 L2 26
    L2 6
    L2 4 L4 4
    L4 2 Z
  " fill="url(#bg)"/>

  <!-- Agent head -->
  <rect x="12" y="6" width="8" height="2" fill="#E0E7FF"/>
  <rect x="11" y="8" width="10" height="5" fill="#E0E7FF"/>
  <rect x="12" y="13" width="8" height="1" fill="#E0E7FF"/>

  <!-- Eyes -->
  <rect x="13" y="9" width="2" height="2" fill="#1E1B4B"/>
  <rect x="17" y="9" width="2" height="2" fill="#1E1B4B"/>

  <!-- Eye glint -->
  <rect x="13" y="9" width="1" height="1" fill="rgba(255,255,255,0.5)"/>
  <rect x="17" y="9" width="1" height="1" fill="rgba(255,255,255,0.5)"/>

  <!-- Body -->
  <rect x="11" y="15" width="10" height="6" fill="#C7D2FE"/>

  <!-- Core gem -->
  <rect x="15" y="16" width="2" height="2" fill="#D4A843"/>

  <!-- Arms -->
  <rect x="8" y="16" width="3" height="2" fill="#A5B4FC"/>
  <rect x="21" y="16" width="3" height="2" fill="#A5B4FC"/>

  <!-- Legs -->
  <rect x="12" y="21" width="3" height="3" fill="#818CF8"/>
  <rect x="17" y="21" width="3" height="3" fill="#818CF8"/>

  <!-- Platform -->
  <rect x="6" y="25" width="20" height="2" fill="#D4A843"/>
</svg>
